# xmcd CD database file
#
# Track frame offsets:
#	150
#	39386
#	68228
#	99086
#	130060
#	157785
#	172645
#	201621
#	217665
#	230709
#	241188
#	268124
#
# Disc length: 3679 seconds
#
# Revision: 0
# Processed by: cddbd v1.5.2PL0 Copyright (c) Steve Scherf et al.
# Submitted via: CDex 1.51
#
DISCID=950e5d0c
DTITLE=Marius Neset - Pinball
DYEAR=2015
DGENRE=Jazz
TTITLE0=World Song Part 1
TTITLE1=World Song Part 2
TTITLE2=Pinball
TTITLE3=Odes od You
TTITLE4=Police
TTITLE5=Music for Cello and Saxophone
TTITLE6=Theatre of Magic
TTITLE7=Aberhonddu
TTITLE8=Jaguar
TTITLE9=Music for Drums and Saxophone
TTITLE10=Summer Dance
TTITLE11=Hymn from the World
EXTD=YEAR: 2015
EXTT0=
EXTT1=
EXTT2=
EXTT3=
EXTT4=
EXTT5=
EXTT6=
EXTT7=
EXTT8=
EXTT9=
EXTT10=
EXTT11=
PLAYORDER=
